<?xml version='1.0' encoding='utf-8'?>
<!DOCTYPE svg PUBLIC '-//W3C//DTD SVG 1.1//EN' 'http://www.w3.org/Graphics/SVG/1.1/DTD/svg11.dtd'>
<svg version="1.1" xmlns="http://www.w3.org/2000/svg" viewBox="0 0 512 512" xmlns:xlink="http://www.w3.org/1999/xlink" enable-background="new 0 0 512 512">
  <g>
    <g>
      <path d="m256,11c-135.1,0-245,109.9-245,245s109.9,245 245,245 245-109.9 245-245-109.9-245-245-245zm0,449.2c-112.6,0-204.2-91.6-204.2-204.2 0-112.6 91.6-204.2 204.2-204.2 112.6,0 204.2,91.6 204.2,204.2 0,112.6-91.6,204.2-204.2,204.2z"/>
      <path d="m382.4,188.4l-93.9-10c-11.2-1-21.3,6.9-22.5,18.1-1.2,11.2 6.9,21.3 18.1,22.5l52.5,5.6-58.4,45.1-61.6-46c-8.1-6.1-19.5-5.3-26.7,2l-72.7,73.1c-8,8-8.8,21.9 0.1,28.9 14.6,11.4 24.9,3.9 28.9-0.1l60.2-60.6 59.8,44.7c7.3,5.5 17.4,5.4 24.7-0.2l62.9-48.7-4,37.6c-1.2,11.2 7,20.6 18.1,22.5 10.7,1.8 21.4-7.7 22.5-18.2l10-93.9c1.3-11.1-6.8-21.2-18-22.4z"/>
    </g>
  </g>
</svg>
