<svg xmlns="http://www.w3.org/2000/svg" viewBox="0 0 512 512"><path d="M430.9 186.2C430.9 89.6 352.4 11 256 11S81.1 89.6 81.1 186.2c0 42.3 15.1 81.2 40.1 111.5v182.8c2.1 23.7 26.4 22.4 31.3 17.3L256 433.1l103.5 64.8c21.4 10 32-8.4 31.3-17.3 0 0 0-182-.1-182.7 25.1-30.3 40.2-69.3 40.2-111.7zM256 51.8c73.9 0 134 60.3 134 134.4s-60.1 134.4-134 134.4-134.1-60.3-134.1-134.4S182.1 51.8 256 51.8zm10.8 339.9c-6.6-4.1-15-4.2-21.7 0l-83.1 52V334c27.2 17.4 59.4 27.5 94 27.5s66.8-10.1 94-27.5v109.8l-83.2-52.1z"/><path d="M254.2 258.5h31V114h-58.4v27.5h27.4z"/></svg>