<?xml version='1.0' encoding='utf-8'?>
<!DOCTYPE svg PUBLIC '-//W3C//DTD SVG 1.1//EN' 'http://www.w3.org/Graphics/SVG/1.1/DTD/svg11.dtd'>
<svg version="1.1" xmlns="http://www.w3.org/2000/svg" viewBox="0 0 512 512" xmlns:xlink="http://www.w3.org/1999/xlink" enable-background="new 0 0 512 512">
  <g>
    <g>
      <path d="M430.9,186.2C430.9,89.6,352.4,11,256,11C159.6,11,81.1,89.6,81.1,186.2c0,42.3,15.1,81.2,40.1,111.5v182.8    c2.1,23.7,26.4,22.4,31.3,17.3L256,433.1l103.5,64.8c21.4,10,32-8.4,31.3-17.3c0,0,0-182-0.1-182.7    C415.8,267.6,430.9,228.6,430.9,186.2z M256,51.8c73.9,0,134,60.3,134,134.4s-60.1,134.4-134,134.4    c-73.9,0-134.1-60.3-134.1-134.4S182.1,51.8,256,51.8z M266.8,391.7c-6.6-4.1-15-4.2-21.7,0l-83.1,52V334    c27.2,17.4,59.4,27.5,94,27.5c34.6,0,66.8-10.1,94-27.5v109.8L266.8,391.7z"/>
      <polygon points="254.2,258.5 285.2,258.5 285.2,114 226.8,114 226.8,141.5 254.2,141.5   "/>
    </g>
  </g>
</svg>
