<svg xmlns="http://www.w3.org/2000/svg" viewBox="0 0 512 512"><path d="M361.1 293.2h-83.8v-69.4c0-11.8-9.5-21.3-21.3-21.3s-21.3 9.5-21.3 21.3v69.4h-83.8c-8.6-.5-23.5 7.3-21 25.1l30 165.2c1.8 10.1 10.7 17.5 21 17.5h150.2c10.3 0 19.1-7.4 21-17.5l30-165.2c1.9-7-2.9-24.7-21-25.1zm-47.8 165.2H198.7l-22.3-122.6h159.2l-22.3 122.6zm-78.5-320.8c-3.3-4.2-5.5-10.7-6.8-19.6l-16.7 3.1c.6 8.6 2.8 15.9 6.6 21.8 3.8 6 8.3 10.3 13.5 12.9 5.2 2.7 11.9 4.5 20.2 5.6V178h9.8v-16.8c11.6-.6 21.1-4.7 28.4-12.4 7.3-7.7 11-17.3 11-28.8 0-5.2-.9-10.1-2.6-14.6-1.8-4.5-4.3-8.4-7.5-11.6-3.3-3.3-7.5-6-12.6-8.3-2.7-1.2-8.2-2.8-16.6-4.9V32.9c5.4 1.1 9.7 3.4 12.8 6.9 3.1 3.5 5.1 8.5 6.1 15l17.1-2.6c-1.5-10.5-5.8-18.8-13.1-24.8-5.7-4.7-13.3-7.6-23-8.5V11h-9.8v7.9c-11 1.1-19.3 4.1-24.9 9-8.4 7.3-12.5 16.9-12.5 28.7 0 6.6 1.4 12.6 4.3 17.8 2.9 5.2 6.9 9.3 12.2 12.3 7.1 4 14.1 6.6 20.9 7.9v52.8c-6.5-.7-12.1-3.9-16.8-9.8zm26.5-40.7c8.9 2.9 14.9 6.2 17.8 9.8 3 3.7 4.5 8.5 4.5 14.5 0 7.1-2.1 13-6.3 17.8-4.2 4.8-9.5 7.6-16 8.4V96.9zm-25.8-27.4c-3.2-3.8-4.7-8.5-4.7-14.2 0-5.7 1.9-10.7 5.6-14.8 3.7-4.2 8.8-6.8 15.3-7.7v45.9c-7.7-2.3-13-5.4-16.2-9.2z"/><path d="M445.4 100.5c-72.3 0-131.1 58.8-131.1 131.1 0 11.8 9.5 21.3 21.3 21.3 72.3 0 131.1-58.8 131.1-131.1 0-11.7-9.5-21.3-21.3-21.3zm-84.9 106.3c8.4-28.8 31.2-51.6 60.1-60.1-8.5 28.8-31.3 51.6-60.1 60.1zm-183.9 46.1c11.8 0 21.3-9.5 21.3-21.3 0-1.1-.1-2.2-.2-3.3-1.8-70.8-59.9-127.8-131.1-127.8-11.8 0-21.3 9.5-21.3 21.3 0 72.3 58.8 131.1 131.1 131.1h.2zM91.4 146.7c28.8 8.4 51.6 31.2 60.1 60.1-28.8-8.5-51.6-31.3-60.1-60.1z"/></svg>