<svg xmlns="http://www.w3.org/2000/svg" width="408.28" height="52.006" viewBox="0 0 108.024 13.76" shape-rendering="geometricPrecision" text-rendering="geometricPrecision" image-rendering="optimizeQuality" fill-rule="evenodd" clip-rule="evenodd"><defs><style>.fil0{fill:#f30133;fill-rule:nonzero}</style></defs><g id="__x0023_Layer_x0020_1"><g id="_53438992"><path id="_53382072" class="fil0" d="M43.189.085h-12.4c-4.357 0-4.99 3.523-5.104 3.892-.145.465-2.003 7.505-2.59 9.735 2.512 0 7.531.01 7.531.01s1.451-5.513 1.465-5.494c.162.162 3.125 3.783 4.055 4.803.75.813 1.263.686 4.15.69h4.564l-4.208-4.967h4.657c.311-1.33.747-2.91 1.13-4.44.577-2.338-1.328-4.169-3.25-4.23zm-4.813 6.241h-5.777l.917-3.279h5.733l-.873 3.28z"/><path id="_53368360" class="fil0" d="M22.872 3.032L23.668.15 7.406.145C3.984.317 3 2.393 2.484 4.436c-.185.738-.371 1.433-.528 2.032a44.576 44.576 0 0 1-.408 1.484l12.545-.01-.767 2.921H.781L0 13.733h15.636c3.144 0 4.715-1.314 5.48-4.164.525-2.014 1.09-4 1.09-4h-12.2l.672-2.537h12.193z"/><path id="_53370568" class="fil0" d="M54.752.113c-1.198 0-3.765-.213-5.08 3.81-.595 2.163-2.61 9.805-2.61 9.805s2.023.006 3.67.006c1.667 0 3.424.055 3.981-1.04.499-.964 1.125-3.567 1.125-3.567h6.013L60.6 13.76h7.556C71.633.733 71.539 1.055 71.798.113H54.752zm7.623 6.256l-5.75.01.885-3.332h5.732l-.867 3.322z"/><path id="_52645600" class="fil0" d="M95.586 13.728L98.305 3.31h-4.527l-2.743 10.425H83.73L86.463 3.31h-4.56L79.15 13.743h-7.541L75.233.024s24.395-.054 26.953 0c1.584.034 3.864 1.61 3.07 4.716-.94 3.67-1.57 6.756-2.155 8.988h-7.515z"/><path id="_52746128" class="fil0" d="M105.298 12.128c0-.701.533-1.238 1.215-1.238.678 0 1.21.537 1.21 1.238 0 .724-.532 1.25-1.21 1.25-.682 0-1.215-.526-1.215-1.25zm1.215 1.504c.818 0 1.51-.637 1.51-1.504 0-.85-.692-1.49-1.51-1.49-.82 0-1.515.64-1.515 1.49 0 .867.694 1.504 1.515 1.504zm-.314-1.384h.3l.455.747h.293l-.488-.758c.25-.029.443-.166.443-.475 0-.335-.2-.484-.607-.484h-.655v1.717h.26v-.747zm0-.219v-.533h.359c.176 0 .373.036.373.255 0 .267-.203.278-.418.278h-.314z"/></g></g></svg>